<?xml version="1.0" encoding="UTF-8"?>
<svg id="Layer_1" xmlns="http://www.w3.org/2000/svg" version="1.1" viewBox="0 0 512 512">
  <!-- Generator: Adobe Illustrator 29.8.4, SVG Export Plug-In . SVG Version: 2.1.1 Build 6)  -->
  <defs>
    <style>
      .st0 {
        fill: #b0e02b;
      }
    </style>
  </defs>
  <path class="st0" d="M388.5654,194.0907c8.256,8.4053,8.128,21.9093-.2987,30.1653l-94.4213,92.6933c-16.704,16.384-38.208,24.5547-59.7333,24.5547-21.2907,0-42.5813-8.0213-59.2213-24.0853l-40.512-39.8293c-8.4053-8.256-8.512-21.76-.256-30.1653,8.2347-8.4267,21.7813-8.5333,30.1653-.256l40.384,39.7013c16.5547,16,42.688,15.9147,59.328-.384l94.4-92.672c8.384-8.2773,21.8453-8.128,30.1653.2773h0ZM512,256c0,141.1627-114.8373,256-256,256S0,397.1627,0,256,114.8373,0,256,0s256,114.8373,256,256ZM469.3333,256c0-117.632-95.7013-213.3333-213.3333-213.3333S42.6667,138.368,42.6667,256s95.7013,213.3333,213.3333,213.3333,213.3333-95.7013,213.3333-213.3333Z"/>
</svg>