<?xml version="1.0" encoding="UTF-8"?>
<svg id="Layer_1" xmlns="http://www.w3.org/2000/svg" version="1.1" viewBox="0 0 176 46">
  <!-- Generator: Adobe Illustrator 29.8.3, SVG Export Plug-In . SVG Version: 2.1.1 Build 3)  -->
  <defs>
    <style>
      .st0 {
        fill: #fff;
      }

      .st1 {
        fill: #b8f13c;
      }
    </style>
  </defs>
  <g>
    <path class="st0" d="M67.2525,21.2248c-2.8843-.5816-4.8824-1.3496-5.9937-2.3018-1.0581-.8989-1.5869-2.1689-1.5869-3.8105,0-1.6402.6748-2.897,2.0234-3.77,1.2705-.8203,3.0166-1.231,5.2393-1.231,2.0639,0,3.6645.4238,4.8027,1.2705,1.1372.8735,1.8652,2.2495,2.1826,4.1279.0528.4234.2246.7413.5161.9522.2911.2124.608.3047.9527.2778.3701-.0522.6479-.2241.833-.5161.2383-.3169.3179-.727.2383-1.23-.3174-1.958-1.0855-3.5327-2.3018-4.7231-1.6406-1.5874-3.9956-2.3814-7.0649-2.3814-3.0952,0-5.5303.6353-7.3028,1.9053-1.7461,1.2964-2.6196,3.0957-2.6196,5.3975,0,2.3813.8599,4.2339,2.5801,5.5566,1.4551,1.085,3.81,2.0112,7.0649,2.7783,3.3867.7671,5.6485,1.7061,6.7866,2.8174.9527.9268,1.4288,2.3692,1.4288,4.3262,0,1.8008-.9126,3.2148-2.7388,4.2461-1.5083.875-3.2149,1.3086-5.1196,1.3086-2.5401,0-4.459-.5-5.7549-1.5059-1.4556-1.084-2.2764-2.8183-2.461-5.1992-.0532-.4492-.2119-.7949-.476-1.0313-.2383-.2119-.5298-.3046-.8736-.2792-.3169.0273-.5815.1464-.7934.3574-.2647.2656-.3706.6093-.3179,1.0312.2642,3.0703,1.3496,5.3321,3.2549,6.7871,1.7461,1.377,4.2471,2.0645,7.5015,2.0645,2.8837,0,5.2783-.7031,7.1835-2.1035,2.064-1.4825,3.0957-3.4668,3.0957-5.9532,0-2.541-.7539-4.498-2.2622-5.874-1.5615-1.4292-4.2338-2.5268-8.017-3.2944Z"/>
    <path class="st0" d="M102.4966,35.5534h-14.5669c-.582,0-1.0313-.1875-1.3486-.5566-.2647-.3164-.3975-.7149-.3975-1.1895v-10.0425h14.4087c.3965,0,.7129-.1186.9512-.3564.2109-.2124.3183-.4624.3183-.7544,0-.3179-.1074-.582-.3183-.794-.2383-.2114-.5547-.3173-.9512-.3173h-14.4087v-8.9703c0-.5019.1328-.9126.3975-1.2299.3173-.3702.7666-.5562,1.3486-.5562h14.0513c.3691,0,.6738-.1186.9121-.3569.2109-.2114.3183-.4624.3183-.7544,0-.3169-.1074-.5811-.3183-.7935-.2383-.2109-.543-.3174-.9121-.3174h-14.4878c-1.2168,0-2.169.397-2.8574,1.1905-.6084.7148-.9131,1.6015-.9131,2.6596v21.5513c0,1.0313.3047,1.9043.9131,2.6192.6884.7929,1.6406,1.1894,2.8574,1.1894h15.0034c.3965,0,.7148-.1172.9512-.3555.2129-.2129.3183-.4629.3183-.7558,0-.3164-.1054-.5801-.3183-.793-.2364-.2129-.5547-.3164-.9512-.3164Z"/>
    <path class="st0" d="M125.5552,35.5534h-12.2246c-.5821,0-1.0313-.1875-1.3477-.5566-.2656-.3164-.3984-.7149-.3984-1.1895V9.1994c0-.4233-.1328-.7544-.3965-.9927-.2383-.2109-.5156-.3174-.834-.3174-.3437,0-.6348.1065-.873.3174-.2383.2383-.3575.5694-.3575.9927v24.7661c0,1.0313.3047,1.9043.9141,2.6192.6875.7929,1.6406,1.1894,2.8574,1.1894h12.6602c.3965,0,.7148-.1172.9531-.3555.2109-.2129.3164-.4629.3164-.7558,0-.3164-.1055-.5801-.3164-.793-.2383-.2129-.5566-.3164-.9531-.3164Z"/>
    <path class="st0" d="M142.7407,9.7546c-.2129-.6084-.5293-1.0713-.9531-1.3887-.3965-.291-.8203-.4365-1.2695-.4365-.5039,0-.9531.1455-1.3496.4365-.4239.3174-.7403.7803-.9532,1.3887l-9.8027,26.9082c-.1855.4238-.1973.7949-.0391,1.1113.1582.3184.3965.5293.7149.6348.3164.1074.6211.082.9121-.0782.3437-.1855.5957-.4765.7539-.873l3.3731-9.248h12.7421l3.3321,9.248c.1582.3965.3984.6875.7148.873.3164.1309.6348.1446.9531.0411.3164-.1075.5411-.3067.6739-.5977.1601-.3437.1718-.7148.039-1.1113l-9.8418-26.9082ZM134.9224,26.028l5.5156-15.0825h.1211l5.4766,15.0825h-11.1133Z"/>
    <path class="st0" d="M15.2412,10.6833l-1.31,3.6001,4.2651,11.7446H7.1118L16.5122.1974h-2.6606l-6.7779,18.625L.5737,36.6628c-.185.4238-.1982.7949-.0395,1.1113.1592.3184.3974.5293.7143.6348.3179.1074.6216.082.9131-.0782.3438-.1855.5952-.4765.7539-.873l3.3741-9.248h12.7402l3.334,9.248c.1587.3965.3965.6875.7138.873.3179.1309.6353.1446.9527.0411.3179-.1075.5425-.3067.6748-.5977.1587-.3437.1719-.7148.04-1.1113L15.2412,10.6833Z"/>
    <path class="st0" d="M175.2857,8.8815c-.2364-.2109-.5547-.3174-.9532-.3174h-18.9316c-.6348,0-.9512.3711-.9512,1.1109,0,.7412.3164,1.1113.9512,1.1113h8.4141v13.8067c-.002.039-.0176.0698-.0176.1113v21.0796h2.498v-21.0796c0-.0391-.0156-.0664-.0195-.1035v-13.8145h8.0566c.3985,0,.7168-.1186.9532-.3569.2382-.2114.3574-.4624.3574-.7544,0-.3169-.1192-.5811-.3574-.7935Z"/>
    <path class="st0" d="M47.8838,8.9611v24.9243l-13.9312-23.1782-1.3496-1.9844c-.4233-.6611-1.0317-.9389-1.8252-.8335-.7939.1329-1.1909.6617-1.1909,1.5874v36.3072h2.4995v-8.7168c0-.002.001-.0059.001-.0078V12.4142l13.4546,22.1861,2.2231,3.2539c.3169.5547.8331.7265,1.5474.5176.7144-.1875,1.0713-.7286,1.0713-1.6289V.1974l-2.5,2.5264v6.2373Z"/>
  </g>
  <g>
    <polygon class="st1" points="50.3838 .1974 14.4829 .1974 14.4829 .1979 13.8516 .1979 11.0606 7.8679 13.7212 7.8679 15.6025 2.697 47.8838 2.7238 50.3838 .1974"/>
    <polygon class="st1" points="163.7974 43.2839 32.0864 43.2839 29.5869 45.7839 166.2954 45.7839 163.7974 43.2839"/>
  </g>
</svg>